<?xml version="1.0" encoding="UTF-8" standalone="no"?>
<!-- Created with Inkscape (http://www.inkscape.org/) -->

<svg
   width="258.60172mm"
   height="240.77319mm"
   viewBox="0 0 258.60172 240.7732"
   version="1.1"
   id="svg1"
   sodipodi:docname="beslutify.svg"
   inkscape:version="1.4 (e7c3feb1, 2024-10-09)"
   inkscape:export-filename="beslutify-icon-192.png"
   inkscape:export-xdpi="22.051678"
   inkscape:export-ydpi="22.051678"
   xmlns:inkscape="http://www.inkscape.org/namespaces/inkscape"
   xmlns:sodipodi="http://sodipodi.sourceforge.net/DTD/sodipodi-0.dtd"
   xmlns="http://www.w3.org/2000/svg"
   xmlns:svg="http://www.w3.org/2000/svg">
  <sodipodi:namedview
     id="namedview1"
     pagecolor="#ffffff"
     bordercolor="#000000"
     borderopacity="0.25"
     inkscape:showpageshadow="2"
     inkscape:pageopacity="0.0"
     inkscape:pagecheckerboard="0"
     inkscape:deskcolor="#d1d1d1"
     inkscape:document-units="mm"
     inkscape:zoom="0.5"
     inkscape:cx="490"
     inkscape:cy="446"
     inkscape:window-width="1672"
     inkscape:window-height="1051"
     inkscape:window-x="887"
     inkscape:window-y="1478"
     inkscape:window-maximized="1"
     inkscape:current-layer="svg1" />
  <defs
     id="defs1" />
  <rect
     style="fill:#4da1a9;fill-opacity:1;stroke:#308a00;stroke-width:0"
     id="rect9"
     width="258.60172"
     height="240.77319"
     x="0"
     y="0"
     rx="39.778351"
     ry="40.99242" />
  <path
     style="fill:#ef6f6c;fill-opacity:1;stroke:#308a00;stroke-width:0"
     d="m 96.838455,221.07572 c -5.815589,-0.89007 -7.327392,-1.8524 -11.811497,-7.51853 -0.284486,-0.35947 -1.257634,-0.65359 -2.162559,-0.65359 -2.589419,0 -8.200972,-1.53845 -11.813971,-3.2389 -8.651417,-4.07176 -15.853214,-16.48762 -14.446009,-24.90483 1.370097,-8.19528 5.044789,-13.23718 12.260344,-16.82195 1.294112,-0.64293 2.76469,-1.53095 3.267956,-1.97339 1.206418,-1.0606 1.165733,-3.39062 -0.07887,-4.51697 -0.859859,-0.77816 -1.300567,-0.81744 -3.267951,-0.29124 -6.879587,1.84 -12.243374,6.3079 -15.3655,12.79906 -1.238313,2.57456 -2.18431,3.91518 -2.761943,3.91408 -2.385189,-0.005 -10.432322,-1.75155 -12.183757,-2.64506 -1.092509,-0.55736 -2.302912,-1.01338 -2.689784,-1.01338 -1.406121,0 -7.546309,-5.6833 -9.965615,-9.22408 -3.541579,-5.18328 -6.091586,-13.72289 -6.099142,-20.42516 -0.0078,-6.87627 2.585463,-13.74919 5.187692,-13.74919 0.466433,0 2.05813,0.90922 3.537103,2.0205 3.357965,2.52313 8.95618,3.96861 12.968996,3.34864 2.292298,-0.35415 2.726177,-0.62783 3.522012,-2.22164 1.337037,-2.67766 0.504915,-3.21802 -6.102684,-3.96293 -4.714781,-0.53152 -5.855415,-0.85694 -8.138309,-2.32187 -4.41886,-2.83557 -7.166455,-6.86543 -9.796871,-14.36891 -1.062176,-3.02995 -1.272763,-4.55879 -1.207274,-8.76467 0.09381,-6.024727 0.931124,-9.584557 3.382866,-14.382187 3.493342,-6.83585 8.411741,-11.90248 14.343676,-14.775946 l 3.170258,-1.535692 -0.304731,-5.112221 c -0.371133,-6.226206 0.518381,-10.39179 3.597596,-16.847483 4.128166,-8.65486 13.911204,-16.336522 22.763977,-17.874325 4.960588,-0.861696 5.686054,-0.514681 6.427494,3.074491 0.341513,1.653203 1.196374,4.14469 1.899689,5.536639 2.668204,5.280694 8.402836,9.985179 11.776448,9.660975 1.520786,-0.146151 1.783456,-0.404884 2.224593,-2.191269 0.466299,-1.888278 0.395428,-2.110478 -1.045744,-3.278727 -5.000914,-4.053861 -6.047735,-5.166215 -7.331811,-7.790767 -2.137174,-4.368234 -1.558544,-9.144854 1.770708,-14.617208 4.065932,-6.683254 20.519259,-11.530861 30.299949,-8.927204 5.80939,1.546483 11.4844,6.357161 12.66308,10.734422 0.37742,1.401623 0.50573,28.797006 0.40829,87.176662 -0.13586,81.41187 -0.18458,85.25842 -1.11473,88.00853 -2.08534,6.16561 -6.58253,13.35008 -9.67581,15.45754 -2.41773,1.64721 -9.27902,4.30895 -11.90822,4.61964 -1.10933,0.13108 -3.899304,-0.0498 -6.199943,-0.40186 z m -12.327231,-70.8084 c 5.89363,-4.40024 4.467622,-13.50978 -2.384928,-15.23527 -6.015281,-1.51467 -10.647169,2.04657 -10.647169,8.18609 0,5.3012 3.932285,8.86837 9.142859,8.29395 1.43382,-0.15807 3.18398,-0.71822 3.889238,-1.24477 z m -0.803093,-23.61547 c 1.018898,-0.38739 1.259652,-0.95592 1.539793,-3.6362 0.18264,-1.74735 0.668581,-3.9824 1.079879,-4.96678 0.411297,-0.98437 4.15481,-5.43959 8.318915,-9.90049 9.381152,-10.049787 10.421512,-11.950317 10.348202,-18.904177 -0.0718,-6.81049 -1.8631,-12.62428 -5.060433,-16.424097 -4.837549,-5.749107 -16.377623,-9.170995 -24.932547,-7.393061 -4.169198,0.866468 -9.853107,3.827158 -12.080496,6.292606 -2.501019,2.768336 -4.355619,6.561782 -5.555533,11.363442 -0.833671,3.33608 -0.899192,4.40233 -0.407829,6.63651 0.321982,1.46401 0.808588,2.95596 1.081347,3.31543 0.63292,0.83414 7.663032,0.88083 9.458372,0.0628 1.409071,-0.64202 3.118279,-4.06413 3.752821,-7.51375 0.488138,-2.65373 3.418938,-5.68869 6.253332,-6.47558 4.876914,-1.35394 10.056405,-0.41005 12.11571,2.20794 2.584569,3.28574 2.598981,11.44382 0.02619,14.82404 -1.946376,2.55722 -7.273446,8.656577 -10.873587,12.449987 -4.146508,4.36911 -4.908682,6.2927 -4.899813,12.36618 0.007,4.78553 0.456644,5.94156 2.481217,6.37903 1.456971,0.31481 5.786681,-0.0878 7.354462,-0.68385 z"
     id="path1" />
  <path
     style="fill:#ef6f6c;fill-opacity:1;stroke:#308a00;stroke-width:0"
     d="m 154.87733,221.27913 c -2.92583,-0.64152 -7.86527,-2.9163 -10.60559,-4.88425 -3.65514,-2.62492 -7.22378,-8.15333 -9.0081,-13.95503 l -1.5277,-4.96729 -0.1482,-85.48969 c -0.13024,-75.132212 -0.0532,-85.684272 0.63612,-87.095792 1.04641,-2.14285 2.94644,-4.3288 5.49016,-6.31633 5.70557,-4.45802 14.67284,-5.3492 23.7928,-2.36457 4.69863,1.53769 8.28852,3.41673 10.77499,5.63988 1.88839,1.68841 4.48106,7.47511 4.76827,10.64253 0.62885,6.93504 -1.97413,12.29562 -7.8007,16.06481 -3.21409,2.07918 -3.56167,2.47225 -3.56167,4.02772 0,2.14058 1.54903,3.7041 3.24689,3.27727 2.75815,-0.69338 8.06448,-4.47705 10.31977,-7.35849 1.95058,-2.49214 2.53986,-3.82934 3.66011,-8.30556 l 1.33521,-5.33519 3.30633,-0.15666 c 9.49487,-0.4499 21.5758,7.13155 25.90658,16.25781 3.25457,6.85835 5.54886,17.44472 3.98951,18.40845 -0.28758,0.17774 -0.52287,1.22808 -0.52287,2.33411 0,1.84216 0.20845,2.13549 2.48364,3.49489 1.36601,0.81618 3.15835,1.82249 3.98299,2.23624 2.38525,1.19679 7.76209,6.80622 9.90424,10.33267 2.54208,4.18482 4.45157,10.60215 4.59659,15.448032 0.0857,2.86285 -0.27537,5.23472 -1.46295,9.6106 -2.12525,7.83099 -4.7956,11.61846 -10.09921,14.32416 -2.47184,1.26103 -3.88572,1.56623 -9.42453,2.03433 -2.45501,0.20748 -4.74911,0.55366 -5.09801,0.76929 -0.89038,0.55029 -0.78979,3.01299 0.17959,4.39698 0.72122,1.02968 1.2723,1.16206 4.83658,1.16183 2.78449,-1.8e-4 4.88761,-0.32903 6.83295,-1.06841 3.82142,-1.45244 6.53648,-2.87539 7.34484,-3.84942 1.08612,-1.30869 2.30033,-0.21001 4.39376,3.97568 1.62064,3.24037 1.96032,4.5351 2.24455,8.55531 0.69214,9.79012 -2.0428,17.39393 -8.85069,24.6071 -4.61004,4.88448 -7.03191,6.42791 -13.51009,8.6098 -7.39103,2.48936 -8.47438,2.14651 -12.30678,-3.89472 -3.46045,-5.4549 -5.56599,-7.39576 -11.46177,-10.56531 -5.93396,-3.19007 -7.60667,-3.47964 -8.87945,-1.53713 -1.53051,2.33586 -0.66421,3.67529 3.77808,5.84144 10.77741,5.2553 15.40596,14.59751 13.03341,26.30653 -1.19375,5.89141 -2.68299,8.59036 -6.97311,12.63745 -4.25382,4.01283 -9.22957,6.36318 -15.55191,7.34609 l -3.9918,0.62059 -2.19029,2.90673 c -2.93625,3.89668 -5.91978,5.33027 -11.57561,5.56211 -2.30749,0.0946 -5.13661,-0.0344 -6.28693,-0.28659 z m 18.86891,-89.36954 c 1.40555,-0.8571 9.5911,-10.95276 29.92818,-36.911962 3.29726,-4.20879 5.4406,-7.43821 5.63917,-8.49669 1.08449,-5.78079 -3.46233,-9.52266 -8.84058,-7.27549 -2.08021,0.86917 -1.99871,0.77423 -17.26922,20.11586 -6.85169,8.678342 -12.6508,15.778792 -12.88693,15.778792 -0.23613,0 -1.19887,-0.88234 -2.13942,-1.96077 -6.18219,-7.08841 -10.00064,-10.74465 -11.90749,-11.40162 -5.97557,-2.058752 -10.69857,4.17958 -7.33798,9.69228 1.11201,1.82414 12.19401,14.7239 15.87772,18.4821 3.08501,3.1474 5.97083,3.78598 8.93655,1.9775 z"
     id="path2" />
</svg>
