<?xml version="1.0" encoding="UTF-8" standalone="no"?>
<!-- Created with Inkscape (http://www.inkscape.org/) -->

<svg
   width="221.15323mm"
   height="207.52953mm"
   viewBox="0 0 221.15323 207.52953"
   version="1.1"
   id="svg1"
   sodipodi:docname="beslutify.svg"
   xmlns:inkscape="http://www.inkscape.org/namespaces/inkscape"
   xmlns:sodipodi="http://sodipodi.sourceforge.net/DTD/sodipodi-0.dtd"
   xmlns="http://www.w3.org/2000/svg"
   xmlns:svg="http://www.w3.org/2000/svg">
  <sodipodi:namedview
     id="namedview1"
     pagecolor="#ffffff"
     bordercolor="#000000"
     borderopacity="0.25"
     inkscape:showpageshadow="2"
     inkscape:pageopacity="0.0"
     inkscape:pagecheckerboard="0"
     inkscape:deskcolor="#d1d1d1"
     inkscape:document-units="mm">
    <inkscape:page
       x="0"
       y="7.6450698e-21"
       width="221.15323"
       height="207.52954"
       id="page2"
       margin="0"
       bleed="0" />
  </sodipodi:namedview>
  <defs
     id="defs1" />
  <g
     id="layer1"
     transform="translate(234.02047,180.52848)"
     style="fill:#8ab8f5;fill-opacity:1">
    <rect
       style="fill:#8ab8f5;fill-opacity:1;stroke:#308a00;stroke-width:0"
       id="rect1"
       width="188.70325"
       height="188.70367"
       x="-217.20393"
       y="-170.33429"
       rx="34.159328"
       ry="30.490845" />
    <g
       id="g1"
       transform="matrix(1.4563873,0,0,1.4563873,-280.05973,-227.69997)"
       style="fill:#8ab8f5;fill-opacity:1">
      <path
         fill="#fdfdfd"
         opacity="1"
         stroke="none"
         d="m 122.68638,173.82166 c -1.07383,-0.51224 -2.14767,-1.0245 -3.31764,-1.54977 -0.0961,-0.013 -0.0938,-0.0222 -0.1314,-0.0908 -0.18008,-0.13081 -0.32255,-0.19309 -0.48169,-0.23484 -0.0167,0.0206 0.0301,-0.004 -0.007,-0.0641 -0.1252,-0.0885 -0.21364,-0.11705 -0.30527,-0.1329 -0.003,0.0127 0.0178,-0.003 -0.0257,-0.0742 -0.18976,-0.15036 -0.33606,-0.22953 -0.50764,-0.35354 -0.0832,-0.0874 -0.14812,-0.10628 -0.2557,-0.16822 -0.16128,-0.15065 -0.28675,-0.23445 -0.42413,-0.31261 -0.0119,0.006 -0.012,-0.0206 -0.0487,-0.0719 -0.10176,-0.10879 -0.17756,-0.14232 -0.27799,-0.13107 -0.014,0.0206 0.0286,-0.005 -0.001,-0.0693 -0.11212,-0.10681 -0.19448,-0.14962 -0.28153,-0.17666 -0.005,0.0159 0.0274,0.008 -0.001,-0.06 -0.11236,-0.1189 -0.1959,-0.16946 -0.31319,-0.2935 -0.34793,-0.36314 -0.6621,-0.65281 -1.00449,-1.01166 -0.10615,-0.12708 -0.18405,-0.18495 -0.26562,-0.22643 -0.004,0.0164 0.0281,0.005 0.005,-0.0618 -0.0968,-0.12215 -0.17051,-0.17721 -0.25163,-0.21484 -0.007,0.0175 0.0257,0 0.007,-0.065 -0.0832,-0.12317 -0.14729,-0.1823 -0.21383,-0.21855 -0.002,0.023 0.007,-0.0257 -0.0225,-0.0941 -0.13197,-0.17193 -0.23424,-0.27538 -0.34432,-0.36751 -0.008,0.0114 0.0185,0.003 5.3e-4,-0.0662 -0.0897,-0.12899 -0.1614,-0.18823 -0.23723,-0.23165 -0.004,0.0159 0.0272,0.006 0.0117,-0.0568 -0.0386,-0.15242 -0.0908,-0.21899 -0.18395,-0.26627 -0.0119,-0.003 -5.3e-4,-0.0257 -0.0332,-0.0911 -0.12871,-0.16965 -0.22462,-0.2739 -0.33803,-0.35616 -0.0175,0.022 0.0261,-0.0132 0.008,-0.0938 -0.17247,-0.30139 -0.32674,-0.52234 -0.50549,-0.70972 -0.0245,0.0335 0.0341,-0.0254 0.0156,-0.10232 -0.10825,-0.19917 -0.19801,-0.32139 -0.29383,-0.4301 -0.006,0.0135 0.0226,0.006 0.007,-0.0729 -0.10446,-0.20513 -0.19326,-0.33123 -0.28723,-0.44566 -0.005,0.0116 0.0202,0.01 0.008,-0.0713 -0.0946,-0.2127 -0.17749,-0.34444 -0.26584,-0.46331 -0.005,0.013 0.0223,0.0101 0.0111,-0.071 -0.0884,-0.21699 -0.16554,-0.35293 -0.25573,-0.46816 -0.013,0.0206 0.0273,-0.007 0.008,-0.10435 -0.54971,-1.80475 -1.08038,-3.51226 -1.61176,-5.33511 -0.0697,-1.83171 -0.19834,-3.54804 -0.19894,-5.26442 -0.0125,-36.05654 -0.0116,-72.113069 -0.007,-108.169609 1.6e-4,-1.45143 0.0585,-2.90287 0.13144,-4.42883 2.33918,-4.152147 5.65892,-6.839665 10.46343,-7.638757 0.62005,-0.06501 1.12717,-0.18719 1.64066,-0.227034 3.78254,-0.293516 7.34168,0.648499 10.83536,1.984896 0.009,-0.0041 0.0291,-0.009 0.0957,0.0475 0.90206,0.455511 1.7375,0.854498 2.58543,1.234905 0.0125,-0.01857 -0.0322,-0.01524 0.008,0.04631 0.13318,0.08942 0.22626,0.117301 0.31834,0.134242 -0.001,-0.01095 -0.0219,-0.004 0.0225,0.06345 0.19079,0.132693 0.33719,0.197948 0.486,0.243517 0.002,-0.01968 -0.0356,-0.0082 0.0105,0.0653 0.38215,0.298688 0.71826,0.52384 1.06966,0.803986 0.0685,0.118364 0.1364,0.14713 0.25652,0.213461 0.20398,0.208174 0.37038,0.344174 0.55082,0.539444 0.0603,0.13593 0.12824,0.17479 0.24718,0.24419 0.10787,0.12674 0.18634,0.18513 0.27458,0.30024 0.0482,0.13411 0.11063,0.17244 0.22676,0.24415 0.16041,0.23226 0.2911,0.39206 0.48301,0.49105 0.0218,-0.019 -0.0177,0.0228 -0.0228,0.1331 0.13521,0.17726 0.23613,0.28607 0.34062,0.38073 0.004,-0.0142 -0.0252,-0.009 -0.006,0.0545 0.0193,0.0633 0.10161,0.16682 0.12861,0.25423 2.13938,3.70806 1.91161,7.45703 0.65581,11.2648 0.016,0.002 0.006,-0.0291 -0.0628,0.0161 -0.11968,0.20131 -0.17026,0.35741 -0.20356,0.51463 0.0172,10e-4 0.007,-0.0319 -0.0647,0.0124 -0.19593,0.29251 -0.32038,0.54076 -0.43285,0.79183 0.012,0.003 -5.3e-4,-0.0184 -0.0677,0.023 -0.14005,0.18013 -0.21289,0.31881 -0.26289,0.46446 0.0229,0.007 0.0127,-0.0397 -0.0526,-0.006 -0.10721,0.12126 -0.14913,0.20886 -0.1756,0.2985 0.0155,0.002 0.006,-0.0278 -0.0544,-0.003 -0.13966,0.12943 -0.21853,0.23377 -0.33401,0.36443 -0.0366,0.0263 -0.065,0.11188 -0.0903,0.13075 -0.0253,0.0189 -0.1039,0.11646 -0.14214,0.13532 -0.0383,0.0189 -0.0769,0.0949 -0.11088,0.11521 -0.076,0.0543 -0.10685,0.0964 -0.15448,0.16441 -0.0279,0.0177 -0.0637,0.0732 -0.0978,0.0918 -0.0759,0.0505 -0.10786,0.0903 -0.16877,0.15438 -0.0388,0.0163 -0.0841,0.0872 -0.13922,0.12252 -0.14206,0.12999 -0.22901,0.2247 -0.37004,0.32615 -0.13108,0.038 -0.16933,0.0953 -0.24724,0.20459 -0.20094,0.11707 -0.32349,0.20795 -0.52684,0.3414 -0.70947,0.43751 -1.3059,0.90193 -1.97388,1.21231 -1.2406,0.57645 -1.52125,1.49163 -1.06763,2.99788 0.35915,1.19261 1.60029,1.17181 2.42364,0.81129 1.49165,-0.65312 2.84635,-1.61902 4.28651,-2.4696 0.0283,-0.0152 0.0643,-0.0685 0.1247,-0.0972 0.14273,-0.12841 0.22504,-0.22814 0.37078,-0.35064 0.11128,-0.097 0.15913,-0.17114 0.27805,-0.26802 0.19277,-0.17433 0.31447,-0.32598 0.51149,-0.51412 0.24086,-0.25749 0.4064,-0.47849 0.53832,-0.7113 -0.0336,-0.0118 0.0247,0.0291 0.0891,-0.015 0.17592,-0.21754 0.28746,-0.39099 0.38647,-0.56751 -0.0125,-0.003 -0.006,0.0218 0.0636,-0.0136 0.14749,-0.16965 0.22552,-0.30392 0.29151,-0.45377 -0.0121,-0.0156 -0.0135,0.0238 0.0452,-0.0175 0.0917,-0.13063 0.1248,-0.21999 0.13995,-0.31107 -0.0179,-0.002 -0.008,0.0329 0.0649,-0.0111 0.23773,-0.33224 0.40251,-0.62042 0.56848,-0.92572 0.001,-0.0171 0.0157,-0.0482 0.0616,-0.0931 0.0806,-0.12431 0.10204,-0.2072 0.0937,-0.2947 -0.0165,-10e-4 -0.007,0.0303 0.0625,-0.0165 0.11511,-0.20581 0.16114,-0.36479 0.1915,-0.52332 -0.0157,5.3e-4 -0.007,0.0305 0.07,-0.029 0.56201,-2.14809 1.0474,-4.23672 1.51415,-6.32659 -0.0186,-10e-4 -0.0158,0.036 0.0526,0.009 0.12353,-0.10473 0.17867,-0.18273 0.21829,-0.26174 -0.0155,-10e-4 -0.008,0.0291 0.0946,-0.0139 0.52213,-0.11848 0.93946,-0.23862 1.36224,-0.26241 3.95296,-0.2224 7.4334,1.2371 10.85562,3.10836 0.12594,0.0846 0.20885,0.10547 0.33841,0.1771 0.2845,0.1956 0.52765,0.31934 0.80108,0.51092 0.16185,0.13401 0.29343,0.20016 0.46243,0.32373 0.12139,0.0912 0.20536,0.12505 0.30139,0.14429 0.012,-0.0146 -0.0231,-5.3e-4 0.003,0.061 0.10579,0.0984 0.18507,0.13534 0.30363,0.24903 0.36179,0.30113 0.68426,0.52543 1.03631,0.8182 0.21975,0.22205 0.40992,0.37563 0.61933,0.55554 0.0192,0.0263 0.0758,0.0586 0.0981,0.0978 0.0598,0.0885 0.10738,0.12423 0.18197,0.16775 0.0169,0.0212 0.0595,0.0547 0.0838,0.0958 0.0647,0.0926 0.11564,0.1295 0.19278,0.16538 0.0156,0.0136 0.0425,0.0449 0.0643,0.0866 0.0592,0.0942 0.10771,0.13293 0.18326,0.18414 0.0161,0.0263 0.0648,0.0639 0.0984,0.11776 0.12944,0.13178 0.22531,0.20969 0.34495,0.36148 0.17364,0.21189 0.3235,0.34988 0.4945,0.56157 0.15135,0.23 0.2815,0.38633 0.44727,0.60651 0.13455,0.16596 0.23348,0.26808 0.35255,0.44922 0.18771,0.28627 0.35531,0.49352 0.53753,0.7824 0.1731,0.30082 0.33157,0.52 0.49593,0.79759 0.0183,0.13866 0.0532,0.20746 0.15623,0.35051 1.47307,2.84665 2.47268,5.74062 2.83731,8.84422 0.0403,0.34341 0.32606,0.65799 0.45764,1.07751 5.3e-4,0.65568 0.0415,1.21979 0.0629,1.89796 -0.0311,0.53567 -0.0426,0.95729 -0.13421,1.38023 -0.16058,0.11862 -0.24108,0.23592 -0.35611,0.41774 -0.03,0.11308 -0.0254,0.16164 -0.0473,0.30874 -0.12202,0.55305 -0.26884,1.00475 -0.29399,1.46313 -0.0152,0.27802 0.15773,0.56635 0.28608,0.91574 0.18355,0.11586 0.32713,0.16604 0.51816,0.29204 0.72382,0.46707 1.40018,0.85832 2.08633,1.23298 0.01,-0.0166 -0.023,0.004 0.0214,0.0771 0.41664,0.31816 0.78884,0.56283 1.17821,0.81891 0.0172,0.0114 0.0478,0.0391 0.0968,0.0893 0.24186,0.17946 0.43469,0.30875 0.65484,0.47151 0.0273,0.0335 0.11003,0.0582 0.1401,0.0956 0.077,0.0847 0.1333,0.11342 0.22228,0.11348 0.0232,-0.0102 -0.0109,0.0273 0.0424,0.0906 0.4439,0.37165 0.83456,0.68012 1.24041,0.99386 0.0152,0.005 0.0301,0.0338 0.0793,0.0875 0.21158,0.1573 0.37394,0.26091 0.54221,0.35077 0.006,-0.0138 -0.0235,-0.008 0.004,0.0597 0.10981,0.11797 0.19209,0.1679 0.27734,0.2 0.003,-0.0178 -0.0325,-0.0113 -0.006,0.0569 0.10598,0.12142 0.18537,0.1746 0.26755,0.21288 0.003,-0.0149 -0.0261,-0.006 0.005,0.0673 0.19155,0.20502 0.35216,0.33723 0.52181,0.4529 0.009,-0.0165 -0.0234,0.003 0.009,0.0806 0.33548,0.40113 0.6384,0.72432 0.95346,1.04528 0.0121,-0.003 0.0113,0.0225 0.0324,0.0729 0.0602,0.11446 0.11335,0.16314 0.19445,0.21031 0.0139,0.0138 0.0309,0.0492 0.0684,0.10801 0.13653,0.15144 0.23564,0.24405 0.34138,0.32361 0.007,-0.013 -0.0206,-0.003 0.009,0.0822 0.45551,0.65043 0.88113,1.21627 1.31426,1.76938 0.008,-0.0127 -0.0204,-0.003 0.003,0.0874 0.49131,0.92774 0.95969,1.76515 1.43156,2.62742 0.003,0.0249 0.0229,0.0711 0.06,0.15923 0.49228,1.59647 0.94581,3.10539 1.40363,4.61298 0.14036,0.46223 0.29262,0.92086 0.35458,1.47318 0.0157,1.48029 0.11621,2.8685 0.15639,4.33191 -0.17223,0.25051 -0.33941,0.41185 -0.3876,0.60317 -0.58321,2.316408 -1.14891,4.637189 -1.70708,6.956759 0.0121,-8e-5 0.004,-0.0228 -0.0688,0.0288 -0.20848,0.37568 -0.34462,0.69988 -0.46722,1.02486 0.0136,0 0.005,-0.0249 -0.0693,0.023 -0.29776,0.4581 -0.52164,0.86823 -0.72897,1.28802 0.0165,0.01 -0.003,-0.0236 -0.069,0.009 -0.14327,0.1592 -0.22008,0.28554 -0.29359,0.42529 0.003,0.0135 -0.0243,0.0148 -0.0804,0.0666 -0.16329,0.22373 -0.27045,0.39577 -0.43344,0.5841 -0.12346,0.0669 -0.15634,0.13448 -0.21489,0.24796 -0.14689,0.13031 -0.23337,0.23159 -0.36256,0.3597 -0.0427,0.0268 -0.0718,0.12341 -0.0881,0.13941 -0.0164,0.0159 -0.0802,0.0806 -0.12622,0.0953 -0.046,0.0148 -0.0979,0.0963 -0.15057,0.13353 -0.13468,0.13216 -0.21675,0.22704 -0.28696,0.32555 0.0119,0.004 0.009,-0.0209 -0.0597,0.003 -0.12313,0.10229 -0.17762,0.17999 -0.21762,0.25979 0.0145,0.003 0.006,-0.0259 -0.0729,0 -0.2871,0.20003 -0.49561,0.3742 -0.77034,0.55968 -0.12315,0.0763 -0.18011,0.14147 -0.22208,0.2124 0.015,0.006 0.008,-0.0257 -0.0568,-0.009 -0.13365,0.0714 -0.20205,0.12592 -0.27779,0.18823 -0.007,0.008 -0.0246,-0.005 -0.10555,0.0383 -2.78425,1.43973 -5.54745,2.51124 -8.70259,2.01205 -0.53441,-0.0846 -1.13836,0.27022 -1.69568,0.42653 0.0145,0.005 0.009,-0.0254 -0.0613,-0.007 -0.13687,0.0844 -0.20325,0.15092 -0.26445,0.20992 0.005,-0.007 -0.0116,2.7e-4 -0.0774,0.0487 -0.15829,0.48909 -0.25071,0.92975 -0.3451,1.45886 0.21176,0.4231 0.42549,0.75774 0.6508,1.07948 0.0116,-0.013 0.0101,0.0217 0.037,0.0798 0.0707,0.13708 0.13649,0.18709 0.23555,0.21479 0.0112,0.007 0.007,0.0325 0.0341,0.0834 0.0727,0.1175 0.1348,0.15999 0.22135,0.19283 0.008,0.0146 0.0128,0.047 0.0717,0.13655 2.59561,0.45492 5.08974,0.28821 7.51614,-0.51165 -0.0172,-0.003 -0.0112,0.0318 0.0795,0.0198 0.3718,-0.12375 0.65292,-0.23543 1.00766,-0.33949 0.11772,-0.0146 0.16184,-0.0365 0.29601,-0.0739 0.83702,-0.40847 1.58402,-0.80167 2.31865,-1.19939 -0.0124,-0.005 -0.0121,0.022 0.0593,0.008 0.14068,-0.0773 0.20989,-0.14055 0.25319,-0.21225 -0.0259,-0.008 0.0152,0.0273 0.0743,0.007 0.13565,-0.061 0.19314,-0.11988 0.24049,-0.21013 0.009,-0.0127 0.0396,-0.0177 0.0981,-0.0575 0.18421,-0.17873 0.30993,-0.31758 0.43309,-0.47075 -0.003,-0.0143 0.0262,-0.0103 0.0832,-0.051 0.15167,-0.14292 0.24634,-0.24511 0.33151,-0.35232 -0.01,-0.005 -0.008,0.0164 0.0555,0.01 0.0637,-0.007 0.18426,-0.0499 0.26417,-0.0316 0.2702,0.1106 0.46051,0.20294 0.67247,0.36492 0.0801,0.14274 0.13851,0.21582 0.18529,0.28315 -0.0117,-0.006 -0.0154,0.0198 0.0216,0.0999 0.31513,0.52655 0.59325,0.97317 0.8755,1.40782 0.004,-0.0119 -0.0211,-0.013 -0.006,0.0652 0.1039,0.20458 0.19305,0.33089 0.28803,0.44974 0.006,-0.007 -0.013,-0.005 0.004,0.087 0.36159,0.74076 0.70591,1.38917 1.05034,2.11903 0.0749,0.21801 0.14975,0.35456 0.2308,0.47066 0.006,-0.0204 -0.0366,-0.0198 -0.0223,0.0704 0.10576,0.3057 0.19721,0.52123 0.29307,0.71718 0.004,-0.0196 -0.0356,-0.0172 -0.0196,0.0952 0.11586,1.9664 0.2157,3.82047 0.2785,5.77458 -0.36285,3.40016 -0.97024,6.61921 -2.76388,9.52542 -0.0208,0.0225 -0.0457,0.0788 -0.0935,0.14121 -0.23009,0.38918 -0.41234,0.71594 -0.66139,1.07588 -0.14276,0.16113 -0.21869,0.28911 -0.34082,0.46236 -0.0914,0.12091 -0.11753,0.20267 -0.19448,0.32416 -0.21897,0.24032 -0.36797,0.44699 -0.52673,0.66876 -0.01,0.0151 -0.0373,0.0381 -0.0977,0.0904 -0.25477,0.31122 -0.44912,0.5702 -0.69914,0.8447 -0.12431,0.0644 -0.15771,0.13103 -0.21865,0.24339 -0.15006,0.13312 -0.23726,0.2381 -0.35638,0.36897 -0.0319,0.0259 -0.0587,0.10355 -0.0855,0.12197 -0.0268,0.0185 -0.10729,0.11967 -0.14573,0.13864 -0.0384,0.019 -0.0765,0.0958 -0.11114,0.11631 -0.0777,0.0549 -0.10865,0.0981 -0.16442,0.16992 -0.0369,0.0201 -0.0702,0.0971 -0.0974,0.11104 -0.0272,0.014 -0.0963,0.11308 -0.1308,0.12962 -0.0345,0.0164 -0.0723,0.083 -0.11411,0.10684 -0.0947,0.0637 -0.13284,0.11443 -0.18419,0.19415 -0.0278,0.018 -0.0605,0.0755 -0.089,0.0884 -0.0286,0.013 -0.10146,0.11343 -0.14356,0.13046 -0.0421,0.0169 -0.0827,0.0983 -0.11971,0.11819 -0.0831,0.0542 -0.11702,0.0979 -0.1712,0.16928 -0.0325,0.018 -0.0693,0.0828 -0.0988,0.10002 -0.0649,0.0463 -0.0942,0.0805 -0.15418,0.13443 -0.0368,0.0143 -0.086,0.0761 -0.14109,0.116 -0.1428,0.14041 -0.23049,0.2409 -0.37386,0.35149 -0.13234,0.0464 -0.17158,0.10684 -0.25428,0.22413 -0.38604,0.29245 -0.69126,0.55232 -0.98349,0.81865 0.013,0.006 0.003,-0.0206 -0.0687,-0.003 -0.22743,0.13468 -0.38349,0.25088 -0.55263,0.38151 -0.0131,0.0143 -0.0478,0.0317 -0.10785,0.069 -0.1603,0.13084 -0.26061,0.22439 -0.34699,0.32324 0.0139,0.005 0.005,-0.023 -0.0712,-0.004 -0.19293,0.11536 -0.31009,0.21159 -0.50945,0.32126 -0.30568,0.16917 -0.5292,0.32486 -0.74085,0.48858 0.0119,0.008 0.009,-0.0204 -0.0774,-0.005 -0.38114,0.18658 -0.67583,0.35742 -1.06857,0.53938 -1.07752,0.38261 -2.05698,0.75414 -3.14198,1.12305 -4.22913,1.23124 -5.53026,0.83386 -7.28074,-2.18099 -0.005,0.0116 0.0204,0.0132 0.0103,-0.0685 -0.0944,-0.21428 -0.17874,-0.34703 -0.26977,-0.46723 -0.007,0.0127 0.0208,0.005 0.01,-0.083 -0.18856,-0.38407 -0.36599,-0.68009 -0.54828,-0.96557 -0.005,0.0106 0.0183,0.01 -0.001,-0.0611 -0.10111,-0.12113 -0.18253,-0.17167 -0.26497,-0.20955 -10e-4,0.0127 0.0237,0.007 0.008,-0.0818 -0.27503,-0.38743 -0.53411,-0.68623 -0.79333,-0.97322 -1.5e-4,0.0116 0.0219,0.003 0.008,-0.0777 -0.0963,-0.20852 -0.17825,-0.33597 -0.274,-0.44823 -0.0138,0.0151 0.0221,-0.005 0.002,-0.0727 -0.0933,-0.12298 -0.16638,-0.17801 -0.24785,-0.21653 -0.008,0.0164 0.024,-0.003 0.002,-0.0681 -0.0942,-0.12099 -0.16663,-0.17542 -0.26161,-0.1896 -0.0226,0.0402 0.03,-0.0356 -0.003,-0.11493 -0.45306,-0.46612 -0.87294,-0.85292 -1.33135,-1.21299 -0.0385,0.0267 0.0421,-0.0209 0.0156,-0.0857 -0.10673,-0.10943 -0.18698,-0.15404 -0.28375,-0.17396 -0.0165,0.0246 0.0267,-0.0161 -0.003,-0.0848 -0.22429,-0.21936 -0.41919,-0.36986 -0.63426,-0.54935 -0.0202,-0.029 -0.0821,-0.0629 -0.139,-0.12237 -2.2267,-1.24341 -4.36711,-2.48706 -6.58215,-3.57929 -0.78776,-0.38846 -1.78499,-0.56729 -2.5436,0.46916 -0.5481,0.94409 -0.79336,1.81819 0.0419,2.62898 0.004,-0.0143 -0.0255,-0.01 0.004,0.0576 0.11553,0.10948 0.20154,0.15153 0.28803,0.18293 5.3e-4,-0.0106 -0.0185,0 0.0354,0.0748 0.81093,0.39558 1.56788,0.71527 2.32636,1.01811 0.002,-0.0169 -0.0306,-0.006 0.0176,0.0609 0.20509,0.11673 0.36198,0.16619 0.51899,0.19833 1.5e-4,-0.0172 -0.0328,-0.007 0.0205,0.068 0.74137,0.45794 1.42949,0.84124 2.13361,1.26243 0.016,0.0379 0.0905,0.0728 0.10279,0.0699 0.0123,-0.003 0.0243,0.0193 0.0748,0.0787 0.22768,0.16441 0.40497,0.26964 0.58272,0.36132 5.3e-4,-0.0135 -0.0256,-0.006 0.004,0.0547 0.13865,0.13859 0.24811,0.21621 0.37439,0.30265 0.0169,0.009 0.0446,0.0347 0.0787,0.0865 0.0906,0.11618 0.1604,0.1588 0.24194,0.15531 -0.002,-0.0243 -0.0216,0.0201 0.014,0.0958 0.21073,0.19532 0.38585,0.31491 0.56919,0.41132 0.008,-0.0233 -0.0405,-0.0164 -0.0115,0.0524 0.11112,0.12158 0.1933,0.17439 0.27917,0.19923 0.004,-0.028 -0.0513,-0.0153 -0.0283,0.0662 0.1261,0.20508 0.22922,0.32864 0.3601,0.5251 0.26024,0.27426 0.49269,0.47561 0.75748,0.74588 0.11242,0.12851 0.19248,0.18807 0.28174,0.30203 0.0433,0.13091 0.10223,0.16819 0.21064,0.25061 0.20333,0.30049 0.38208,0.51647 0.5645,0.72056 0.004,-0.0119 -0.0207,-0.007 -0.007,0.0898 0.53627,1.20261 1.0593,2.30838 1.58866,3.52107 0.94426,4.00019 0.60558,7.82029 -0.64862,11.60087 0.003,0.0132 0.0284,0.0238 -0.0312,0.0878 -0.20798,0.44701 -0.35632,0.82991 -0.5004,1.22258 0.004,0.01 0.011,0.0301 -0.0439,0.0892 -0.16987,0.30456 -0.28492,0.55002 -0.45955,0.81894 -0.12278,0.0898 -0.14977,0.16856 -0.19914,0.30686 -0.12269,0.18032 -0.1868,0.31345 -0.23186,0.45953 0.0191,0.013 -0.0102,-0.0225 -0.082,0.0161 -0.21621,0.26532 -0.36063,0.49191 -0.48706,0.74623 0.018,0.0278 -0.003,-0.0349 -0.0699,-0.003 -0.11174,0.12039 -0.15676,0.20789 -0.25682,0.31306 -0.1204,0.0692 -0.15327,0.13655 -0.21652,0.24834 -0.14733,0.13705 -0.23174,0.2455 -0.33566,0.37325 -0.0195,0.0193 -0.0533,0.0625 -0.11475,0.11416 -0.51657,0.51343 -0.97173,0.97512 -1.47365,1.46032 -0.0467,0.0236 -0.0809,0.12237 -0.0937,0.13607 -0.0127,0.0138 -0.0684,0.0619 -0.13068,0.0759 -0.0623,0.014 -0.1359,0.11837 -0.18889,0.14938 -0.13508,0.11613 -0.21718,0.2013 -0.25983,0.31748 0.0395,0.031 -0.0362,-0.0352 -0.11457,-0.0114 -0.28317,0.19698 -0.48801,0.3701 -0.67497,0.5575 0.0179,0.0143 -0.008,-0.0238 -0.0886,-0.005 -0.29824,0.18187 -0.51547,0.34501 -0.71666,0.51826 0.0161,0.0101 -5.2e-4,-0.0241 -0.093,-0.003 -3.21738,1.8276 -6.53953,2.92936 -10.18819,2.98783 -0.46509,0.007 -0.92304,0.46027 -1.35878,0.73419 0.0255,0.0274 -0.0192,-0.0327 -0.0879,0.0103 -0.11834,0.19616 -0.16796,0.34938 -0.20294,0.50644 0.0147,0.004 0.003,-0.0241 -0.0649,0.0183 -0.12271,0.19132 -0.17776,0.34036 -0.21199,0.50183 0.0208,0.0124 -0.006,-0.0278 -0.0731,0.0206 -0.19823,0.28757 -0.32961,0.52673 -0.43846,0.78073 0.0226,0.0148 -0.0103,-0.028 -0.0699,0 -0.12951,0.13682 -0.19941,0.24686 -0.30692,0.38365 -0.0376,0.0268 -0.0641,0.11528 -0.0918,0.13303 -0.0278,0.0177 -0.10224,0.12525 -0.12785,0.14113 -0.0256,0.0159 -0.0623,0.0638 -0.12013,0.1093 -0.25893,0.26175 -0.46,0.47797 -0.66603,0.70826 -0.005,0.014 -0.0344,0.0196 -0.097,0.0534 -0.15948,0.13308 -0.25629,0.23219 -0.33741,0.34374 0.0157,0.0124 -0.005,-0.0217 -0.098,-0.003 -0.90022,0.38224 -1.70773,0.7449 -2.58968,1.10177 -0.11819,0.018 -0.16196,0.0416 -0.30602,0.0829 -1.43221,0.14513 -2.77377,0.43609 -4.09361,0.35841 -1.60394,-0.0944 -3.18957,-0.49951 -4.78312,-0.7702 0,0 -10e-4,0.0291 -0.0218,-0.0496 -0.1778,-0.13071 -0.33525,-0.18262 -0.49269,-0.23453 m 37.19764,-88.023659 c 0.0464,-0.0887 0.0929,-0.17738 0.25812,-0.30512 0.0724,-0.0562 0.10453,-0.12996 0.23308,-0.30313 0.074,-0.13968 0.14799,-0.27932 0.16795,-0.4309 0,0 0.005,0.0551 0.14563,-0.01 0.0481,-0.0902 0.0962,-0.18042 0.26082,-0.30858 0.0677,-0.0585 0.0961,-0.13224 0.22558,-0.31261 0.13982,-0.23815 0.27964,-0.4763 0.39579,-0.71331 0,0 0.007,0.0228 0.14523,-0.0656 0.0565,-0.15203 0.11291,-0.30403 0.13396,-0.45725 0,0 0.009,0.0342 0.17045,-0.0997 0.47775,-1.33723 0.682,-2.6639 -0.16017,-3.91697 0,0 0.034,-0.006 0.004,-0.14424 -0.0585,-0.0687 -0.11708,-0.13751 -0.16186,-0.21605 0,0 0.005,-0.0163 -0.0692,-0.14638 -0.10143,-0.10424 -0.20287,-0.20848 -0.31274,-0.2822 0,0 0.0316,-0.003 -0.0208,-0.14275 -0.0804,-0.0553 -0.16082,-0.11066 -0.24626,-0.12423 0,0 0.0416,-0.006 -0.0179,-0.14297 -0.0834,-0.0508 -0.1668,-0.10167 -0.25168,-0.12145 0,0 0.0299,-0.008 -0.0424,-0.14851 -0.13691,-0.0769 -0.27382,-0.15389 -0.52181,-0.13831 0.0385,-0.0289 0.077,-0.0579 0.0171,-0.19162 -0.17414,-0.0736 -0.34829,-0.14716 -0.75128,-0.3184 -2.05183,-0.10879 -3.85366,0.0863 -5.30152,1.98001 -4.41141,5.76995 -8.98031,11.41957 -13.4926,17.11229 -1.65812,2.09193 -3.32934,4.173449 -5.05564,6.336179 -0.74251,-0.79166 -1.3723,-1.45912 -1.99766,-2.13066 -1.90344,-2.044029 -3.80962,-4.085529 -5.70645,-6.135709 -2.31896,-2.50642 -6.16983,-2.01033 -7.43799,0.98695 -0.87915,2.0778 -0.007,3.854898 1.27413,5.364179 3.30684,3.89599 6.68451,7.73414 10.11319,11.52366 2.45392,2.71217 5.26383,2.59424 7.65185,-0.21362 0.99782,-1.17324 1.9211,-2.41004 2.8746,-3.62082 4.70953,-5.98027 9.41786,-11.961459 14.20646,-17.989379 0,0 0.0358,-0.0855 0.0355,-0.10081 0,0 -0.0152,-0.003 0.11057,-0.077 0.0404,-0.0882 0.0809,-0.17632 0.0734,-0.27247 0,0 0.008,0.048 0.14421,-0.0145 0.0455,-0.0877 0.0911,-0.17548 0.10605,-0.26443 0,0 0.008,0.0295 0.15522,-0.0498 0.15665,-0.22709 0.31329,-0.45421 0.42388,-0.70895 0,0 -0.004,0.0536 0.13747,-0.0167 0.0498,-0.0917 0.0996,-0.18346 0.25638,-0.30996 0.0576,-0.0565 0.0829,-0.12496 0.21546,-0.28075 0.0848,-0.13268 0.16952,-0.26537 0.19602,-0.42338 0,0 0.046,0.0438 0.17332,-0.0505 0.11116,-0.17812 0.22231,-0.35623 0.3005,-0.53784 0,0 0.008,0.0321 0.14037,-0.0303 0.082,-0.12017 0.16392,-0.24037 0.23648,-0.38597 0,0 0.0224,-0.0153 0.12783,-0.0874 0.0622,-0.0629 0.10116,-0.13795 0.0745,-0.24479 0,0 0.0117,0.0453 0.14132,-0.0268 0.0421,-0.0886 0.0842,-0.17724 0.0784,-0.2744 0,0 0.006,0.0483 0.1434,-0.0164 z"
         id="path60"
         style="fill:#8ab8f5;fill-opacity:1;stroke-width:0.264583" />
      <path
         fill="#fdfdfd"
         opacity="1"
         stroke="none"
         d="m 82.049527,34.153608 c 0.05633,-0.0013 0.112654,-0.0026 0.313999,-0.08991 5.101328,-1.791647 10.087386,-2.42167 15.143996,-0.500885 0,0 0.04523,0.0062 0.13348,0.052 0.847865,0.419053 1.6075,0.792345 2.367128,1.165638 0,0 0.008,-0.02609 0.0279,0.04329 0.14279,0.149693 0.26533,0.230013 0.38786,0.310335 0,0 0.037,-0.0039 0.0701,0.05093 0.12663,0.106849 0.22018,0.158861 0.31374,0.210875 1.19005,1.338641 2.3801,2.677285 3.64807,4.180631 0.16871,1.035217 0.33852,1.905691 0.33888,2.776236 0.0147,36.388913 0.003,72.777862 0.0338,109.166742 0.003,3.44567 -0.0637,6.85425 -1.17336,10.15778 0,0 0.0391,0.0106 -0.0348,0.0532 -0.20455,0.45603 -0.33529,0.86947 -0.46602,1.28291 0,0 0.0324,0.004 -0.0463,0.0466 -0.37268,0.71806 -0.66665,1.39385 -1.02701,2.11323 -0.12373,0.18931 -0.18109,0.33504 -0.23845,0.48077 -1e-5,0 0.0272,0.0233 -0.0416,0.0364 -0.0979,0.0974 -0.12712,0.18179 -0.21434,0.32903 -0.2238,0.36047 -0.38955,0.65808 -0.5553,0.95568 0,0 0.0333,0.007 -0.0371,0.0225 -0.14795,0.13994 -0.22549,0.26445 -0.30303,0.38891 0,0 -0.002,0.0303 -0.0662,0.0897 -0.1618,0.22923 -0.2591,0.39904 -0.35641,0.56885 0,0 0.0247,0.007 -0.0452,0.0262 -0.15408,0.13676 -0.238239,0.25394 -0.322397,0.37116 8e-6,0 0.0085,0.0262 -0.05495,0.0709 -0.12178,0.11179 -0.157769,0.18915 -0.171429,0.27689 0,0 0.04275,0.0156 -0.02798,0.0283 -0.114027,0.1002 -0.157329,0.18767 -0.200633,0.27512 0,0 0.04267,0.007 -0.02907,0.0167 -0.123102,0.0946 -0.174479,0.17994 -0.225866,0.26527 -0.230736,0.20026 -0.461471,0.40052 -0.795809,0.70178 -0.262162,0.23601 -0.420719,0.37102 -0.579284,0.50607 0.02873,0.0371 0.05746,0.0743 -0.02328,0.0852 -0.219623,0.0756 -0.329793,0.17759 -0.43996,0.27951 0,0 0.02477,0.009 -0.0586,0.0204 -0.298755,0.17867 -0.514157,0.3461 -0.72956,0.5135 8e-6,0 0.02371,0.01 -0.06645,0.0177 -0.485256,0.2572 -0.880372,0.50615 -1.275487,0.75512 8e-6,0 0.03536,0.0101 -0.04728,0.0103 -0.215257,0.0858 -0.347863,0.17156 -0.48047,0.25728 0,0 0.0318,0.01 -0.06733,0.013 -1.611045,0.55107 -3.122954,1.099 -4.726676,1.6348 -0.592793,0.0754 -1.105892,0.28049 -1.592651,0.23027 -2.163313,-0.22328 -4.319066,-0.51964 -6.522979,-0.85614 -0.238453,-0.15438 -0.431499,-0.24222 -0.624549,-0.33007 0,0 -0.0315,0 -0.09073,-0.0559 -0.139163,-0.0905 -0.22266,-0.11292 -0.309734,-0.12215 0,0 -0.0019,0.0312 -0.03214,-0.0444 -0.27361,-0.20731 -0.516982,-0.33896 -0.760362,-0.47064 0,0 -0.0063,0.0254 -0.02715,-0.0434 -0.137356,-0.15248 -0.253836,-0.23628 -0.370327,-0.32004 0,0 -0.02815,0.006 -0.06696,-0.0577 -0.09483,-0.12533 -0.163314,-0.16679 -0.244277,-0.18766 0,0 -0.06864,0.0801 -0.06091,-0.0148 -0.06634,-0.1447 -0.140391,-0.19452 -0.214443,-0.24434 0,0 -0.02653,0.0484 -0.03567,-0.0304 -0.08501,-0.12925 -0.160859,-0.1796 -0.23671,-0.22998 0,0 -0.0094,0.0406 -0.02429,-0.0378 -0.149545,-0.21958 -0.284202,-0.36084 -0.418861,-0.50207 0,0 -0.03018,-0.01 -0.07101,-0.0856 -0.13821,-0.17481 -0.235587,-0.27389 -0.332965,-0.37298 0,0 -0.0091,0.0308 -0.01336,-0.0412 -0.069,-0.13994 -0.133712,-0.20788 -0.198422,-0.27585 0,0 -0.0061,0.047 -0.01352,-0.0393 -0.104362,-0.20476 -0.201345,-0.32316 -0.298328,-0.44154 0,0 -0.0095,0.0326 -0.02064,-0.0648 -0.472492,-0.37142 -0.933526,-0.88101 -1.395222,-0.88164 -3.252845,-0.004 -6.240324,-1.01656 -9.187738,-2.23004 0,0 -0.0031,0.0311 -0.03911,-0.0467 -0.496467,-0.3284 -0.956903,-0.57898 -1.417339,-0.82957 0,0 -0.03023,-0.003 -0.0899,-0.0669 -0.229677,-0.16423 -0.399677,-0.26316 -0.569683,-0.36208 0,0 -0.007,0.0254 -0.02828,-0.0456 -0.143047,-0.1541 -0.264859,-0.2371 -0.386676,-0.32012 0,0 -0.02339,0.0728 -0.05851,-0.019 -0.100214,-0.15555 -0.177559,-0.19569 -0.26716,-0.21225 0,0 -0.0091,0.037 -0.03621,-0.0426 -0.200715,-0.20531 -0.374314,-0.33102 -0.547915,-0.45669 -0.288105,-0.31123 -0.576209,-0.62244 -0.970362,-1.03368 -0.188563,-0.15568 -0.271068,-0.21135 -0.353565,-0.26702 0,0 -0.0019,0.0333 -0.01662,-0.0488 -0.239472,-0.32478 -0.464143,-0.56732 -0.688822,-0.80989 0,0 -0.03543,0.0876 -0.03424,-0.007 -0.04145,-0.16436 -0.0991,-0.21757 -0.171751,-0.25455 0,0 -0.02617,-0.0164 -0.06523,-0.0912 -0.139454,-0.17031 -0.239843,-0.26575 -0.340241,-0.36118 0,0 -0.009,0.0246 -0.01929,-0.0524 -0.139333,-0.23347 -0.268402,-0.38976 -0.397479,-0.54602 -0.03835,0.0399 -0.0767,0.0798 -0.09231,-0.009 -0.07979,-0.23611 -0.18229,-0.34356 -0.284787,-0.45101 0,0 -0.0092,0.0243 -0.02387,-0.0654 -0.369551,-0.63849 -0.724397,-1.18724 -1.078915,-1.80605 -0.06682,-0.13017 -0.133961,-0.19018 -0.20111,-0.25021 0,0 -0.0091,0.0278 -0.0096,-0.0584 -0.08198,-0.21857 -0.163499,-0.351 -0.245028,-0.48342 0,0 -0.02286,0.0268 -0.02729,-0.0681 -1.384605,-3.54364 -1.846763,-7.06813 -0.844894,-10.80198 0.34222,-0.87175 0.648337,-1.65209 0.95445,-2.4324 0,0 -0.0083,-0.023 0.05317,-0.0916 0.173094,-0.31194 0.284705,-0.55536 0.39632,-0.7988 0,0 -0.02867,-0.005 0.04765,-0.0332 0.118647,-0.1892 0.160973,-0.34975 0.203298,-0.51027 8e-6,0 -0.0323,-0.003 0.03806,-0.0119 0.124711,-0.0856 0.179059,-0.16256 0.233418,-0.23953 8e-6,0 -0.02582,-0.003 0.05151,-0.0329 0.122328,-0.18989 0.167325,-0.35023 0.212326,-0.51057 0.290914,-0.34586 0.551582,-0.72405 0.879274,-1.0306 0.618397,-0.57857 1.275365,-1.11585 2.037876,-1.77334 0.250865,-0.18513 0.380161,-0.26723 0.509458,-0.34933 0,0 -0.03335,-0.0298 0.0672,-0.0372 1.397913,-0.7158 2.671456,-1.47336 4.000339,-2.11661 1.020691,-0.49406 1.242325,-1.3217 1.08241,-2.27135 -0.165073,-0.98028 -0.895593,-1.65322 -1.857314,-1.45423 -1.325856,0.27432 -2.589919,0.84728 -3.947604,1.30591 -0.140833,0.0619 -0.214514,0.1103 -0.298794,0.16092 -0.01061,0.003 -0.03049,-0.006 -0.104177,0.0324 -0.348057,0.22313 -0.622435,0.40751 -0.881978,0.59661 0.01484,0.005 0.0095,-0.0259 -0.05776,-0.009 -0.137136,0.0736 -0.20702,0.12991 -0.274399,0.17902 0.0024,-0.007 -0.0127,-0.006 -0.08026,0.0277 -0.174279,0.13433 -0.280998,0.2349 -0.374187,0.33978 0.01352,0.004 0.01037,-0.0238 -0.05984,-0.004 -0.136337,0.0871 -0.202467,0.15401 -0.242903,0.20941 0.02569,-0.0114 -0.02926,0 -0.0786,0.0117 -0.113945,0.0389 -0.162142,0.0844 -0.193916,0.14726 0,0 -0.04059,0.0254 -0.121626,0.079 -0.17934,0.15785 -0.277638,0.26215 -0.375944,0.36645 -0.08408,-0.004 -0.152567,0.027 -0.304803,0.18616 -0.675565,0.704 -1.251772,1.31431 -1.82799,1.92463 -0.0859,0.003 -0.1476,0.0433 -0.27986,0.21405 -0.23164,0.34194 -0.368509,0.59044 -0.505378,0.83896 -8e-6,0 0.02888,0.005 -0.05368,0.0356 -0.30239,0.44929 -0.522216,0.86747 -0.742042,1.28564 0,0 0.02882,0.003 -0.0499,0.0406 -0.206486,0.36803 -0.334256,0.69892 -0.462018,1.02981 0,0 0.0244,-2.4e-4 -0.05434,0.048 -0.298074,0.72226 -0.517408,1.39631 -0.73675,2.07039 0,0 0.02381,0 -0.04072,0.0204 -0.149508,0.12713 -0.234466,0.23424 -0.319442,0.34134 0,0 -0.0091,0.0317 -0.08415,0.0689 -0.183581,0.11441 -0.292126,0.19164 -0.400687,0.26884 0,0 0.03206,0.0353 -0.07646,0.0432 -2.564654,-0.41667 -5.020794,-0.84127 -7.532947,-1.34101 -1.121772,-0.59936 -2.187535,-1.12361 -3.253306,-1.64786 0,0 -0.02786,0.004 -0.08198,-0.0535 -0.1325,-0.097 -0.215087,-0.12306 -0.301879,-0.13579 0,0 -0.005,0.032 -0.02564,-0.0399 -0.151696,-0.14732 -0.282823,-0.22281 -0.413954,-0.29829 0,0 -0.04497,0.0429 -0.08175,-0.0369 -0.236855,-0.21622 -0.436948,-0.35267 -0.63704,-0.48911 0,0 -0.0433,-0.0373 -0.102433,-0.0929 -0.112284,-0.10829 -0.175675,-0.14131 -0.249298,-0.15475 0,0 -0.118179,0.0305 -0.109014,-0.0492 -0.164526,-0.1955 -0.33823,-0.31141 -0.511926,-0.42733 -7.94e-4,-0.0874 -0.04061,-0.15028 -0.210172,-0.26297 -0.205034,-0.16245 -0.319117,-0.25048 -0.433205,-0.33851 0,0 -0.03353,-0.0116 -0.07265,-0.0702 -0.08543,-0.11398 -0.142587,-0.15388 -0.210587,-0.17825 0,0 -0.02725,-0.003 -0.0755,-0.0819 -0.494335,-0.52115 -0.940406,-0.96245 -1.386478,-1.40377 -5e-6,0 -0.01109,0.0196 -0.02633,-0.0589 -0.170368,-0.21789 -0.325493,-0.35719 -0.480615,-0.49649 0,0 -0.01053,0.0268 -0.02424,-0.0595 -0.266894,-0.38904 -0.520076,-0.6918 -0.773258,-0.99456 5e-6,0 -0.01058,0.0254 -0.01736,-0.049 -0.120238,-0.23 -0.233723,-0.38563 -0.347202,-0.54126 0,0 -0.02782,-0.0371 -0.08238,-0.12459 -0.242065,-0.34689 -0.42957,-0.60632 -0.617078,-0.86574 0,0 -0.01191,0.0233 -0.01786,-0.0674 -0.25732,-0.484 -0.50868,-0.87731 -0.760042,-1.27056 0,0 -0.01,0.0319 -0.0096,-0.0504 -0.08379,-0.21535 -0.16791,-0.34846 -0.252034,-0.48154 0,0 -0.01,0.0299 -0.01347,-0.0691 -0.806606,-2.67028 -1.609733,-5.24145 -2.404703,-7.93628 0.0085,-2.14105 0.0088,-4.15847 0.06111,-6.26373 0.557321,-1.53704 1.062654,-2.98624 1.567985,-4.43543 -6e-6,0 -0.02635,-0.002 0.04677,-0.028 0.140708,-0.16879 0.208288,-0.31111 0.275868,-0.45343 0,0 -0.04366,-0.017 0.02703,-0.0292 0.115125,-0.10165 0.159554,-0.1911 0.20398,-0.28057 0.08837,-0.006 0.149082,-0.0494 0.255466,-0.22049 0.161388,-0.19728 0.249444,-0.30557 0.3375,-0.41387 -3e-6,0 0.02788,-0.0373 0.08207,-0.0786 0.103759,-0.0802 0.139332,-0.12919 0.160898,-0.18836 0,0 0.02183,-0.0283 0.123047,-0.086 0.418738,-0.0415 0.736264,-0.0253 1.053788,-0.009 0.0024,0.0844 0.04205,0.14383 0.207534,0.25425 0.170116,0.12781 0.251862,0.17965 0.333608,0.23147 0,0 0.0024,-0.028 0.01492,0.0407 0.09271,0.11706 0.172953,0.16538 0.253198,0.21368 0,0 0.0036,-0.0219 0.0209,0.047 0.129061,0.15387 0.2408,0.23886 0.352533,0.32383 0,0 0.03315,0.0164 0.09585,0.0881 0.351962,0.28204 0.641226,0.49244 0.930484,0.70284 0,0 0.04127,0.0402 0.116862,0.10667 0.244784,0.15516 0.413977,0.24386 0.583168,0.33258 0,0 0.0218,-0.0189 0.03594,0.0459 0.09772,0.0937 0.181295,0.12261 0.344998,0.20661 2.867882,1.26669 5.759574,1.26567 8.691671,0.79314 0,0 -0.02593,-0.008 0.04771,-0.0115 0.13607,-0.0769 0.198503,-0.15004 0.260935,-0.22316 7e-6,0 -0.04157,-0.008 0.04122,-0.0178 0.223612,-0.1694 0.364431,-0.32952 0.505251,-0.48963 0,0 -0.04592,-0.0351 0.03878,-0.0504 0.09597,-0.11099 0.107254,-0.20664 0.118533,-0.30227 0.157864,-0.49566 0.592915,-1.18191 0.412184,-1.44476 -0.314119,-0.45689 -0.983684,-0.84923 -1.548241,-0.92063 -1.749497,-0.22131 -3.519723,-0.27885 -5.381035,-0.56476 -0.529699,-0.30015 -0.960261,-0.43547 -1.390822,-0.57079 0,0 -0.0031,0.0297 -0.03499,-0.0439 -0.188545,-0.12045 -0.345181,-0.1673 -0.501809,-0.21413 0,0 -5.29e-4,0.0297 -0.03094,-0.0442 -0.183618,-0.12632 -0.336952,-0.17882 -0.490294,-0.23132 0,0 -0.0033,0.0316 -0.03205,-0.0435 -0.30866,-0.23618 -0.588578,-0.39727 -0.868494,-0.55837 0,0 -0.03977,-0.0304 -0.114949,-0.0915 -0.240128,-0.15595 -0.405077,-0.25082 -0.570023,-0.34568 0,0 -0.01236,0.0285 -0.03473,-0.0502 -0.230611,-0.24049 -0.438851,-0.40222 -0.647086,-0.56395 2e-6,0 -0.02395,0.0104 -0.06002,-0.0554 -0.09677,-0.12972 -0.170493,-0.1695 -0.257236,-0.18515 0,0 -0.02551,0.042 -0.03199,-0.0342 -0.08131,-0.127 -0.156123,-0.17773 -0.230934,-0.22849 0,0 -0.03903,0.0556 -0.04181,-0.0292 -0.08047,-0.13296 -0.158165,-0.18118 -0.235857,-0.22941 0,0 -0.01341,0.0359 -0.01979,-0.0366 -0.0774,-0.12802 -0.148405,-0.18354 -0.219406,-0.23907 0,0 -0.06061,0.0995 -0.05054,-0.007 -0.03821,-0.18167 -0.104275,-0.23505 -0.188116,-0.26642 0,0 -0.07779,0.0338 -0.06242,-0.0378 -0.02109,-0.13185 -0.07044,-0.17844 -0.132691,-0.21139 0,0 -0.02831,-0.0454 -0.08291,-0.12305 -0.151284,-0.16847 -0.247963,-0.25924 -0.344647,-0.35001 0,0 -0.01648,0.0296 -0.02699,-0.0609 -0.294658,-0.49783 -0.578826,-0.90524 -0.862994,-1.31264 0,0 -0.02582,-0.0486 -0.07225,-0.12448 -0.105817,-0.18222 -0.165192,-0.28856 -0.224562,-0.3949 0,0 -0.02021,-0.0332 -0.06902,-0.13102 -0.408318,-0.80082 -0.767816,-1.50384 -1.127316,-2.20687 0,0 -0.0089,0.0253 -0.0097,-0.075 -0.466275,-1.52433 -0.931698,-2.948297 -1.388073,-4.457297 -0.07561,-0.2936 -0.16025,-0.50217 -0.242088,-0.78466 -0.0769,-0.19171 -0.156596,-0.3095 -0.157028,-0.46022 0.09541,-0.19567 0.111549,-0.35844 0.141629,-0.64293 -0.0092,-1.1063 -0.0323,-2.09087 -0.02874,-3.18665 0.182327,-3.69323 1.379339,-6.95063 3.174225,-10.09776 0.187867,-0.28503 0.322508,-0.51054 0.457121,-0.74975 -2.7e-5,-0.0137 0.02479,-0.0254 0.08392,-0.0856 0.701846,-0.92914 1.344572,-1.797996 2.041966,-2.683176 0.117798,-0.06917 0.14764,-0.136731 0.210503,-0.250856 0.11761,-0.113107 0.168915,-0.194366 0.279151,-0.292907 0.134848,-0.06533 0.173519,-0.134271 0.238334,-0.252214 0.15221,-0.133544 0.24103,-0.238954 0.349372,-0.365078 0.01953,-0.02069 0.04905,-0.06933 0.08438,-0.08929 0.07918,-0.05384 0.111503,-0.09648 0.163192,-0.16606 0.0309,-0.0182 0.06727,-0.08001 0.100203,-0.09833 0.07307,-0.04994 0.104013,-0.08886 0.167082,-0.154692 0.0413,-0.0196 0.07983,-0.102536 0.104576,-0.11997 0.02474,-0.01744 0.104865,-0.106873 0.147278,-0.120403 0.04241,-0.01352 0.09586,-0.08471 0.148828,-0.121886 0.1372,-0.130215 0.221433,-0.223258 0.290203,-0.324295 -0.01548,-0.008 5.29e-4,0.02297 0.07335,-0.0028 0.223073,-0.163621 0.373242,-0.301492 0.472646,-0.502877 -0.01767,-0.02072 0.0154,0.02209 0.122682,0.03096 0.269034,-0.218414 0.46387,-0.402892 0.645504,-0.593384 -0.01323,-0.006 -0.0026,0.02101 0.06962,-5.29e-4 0.228767,-0.143158 0.385353,-0.264891 0.543428,-0.400606 0.0016,-0.01397 0.02917,-0.009 0.09332,-0.04518 0.168934,-0.133278 0.273698,-0.230357 0.363657,-0.332184 -0.01482,-0.0047 -0.0094,0.02588 0.05779,0.0081 0.13712,-0.07438 0.207063,-0.130966 0.262088,-0.176691 -0.0149,0.01085 0.02117,0.0031 0.08951,-0.02989 0.179099,-0.12999 0.28984,-0.227005 0.385297,-0.32871 -0.01529,-0.0047 -0.0092,0.02671 0.07729,0.0036 0.472776,-0.284954 0.859073,-0.546793 1.233209,-0.812789 -0.01214,-0.0042 -0.01034,0.02146 0.08289,5.29e-4 0.734208,-0.376341 1.375183,-0.731745 1.737281,-0.932524 -0.199213,-1.693413 -0.480737,-3.148066 -0.519946,-4.609217 -0.08993,-3.350828 0.974341,-6.467133 2.1517,-9.542771 -0.01529,-0.0011 -0.0052,0.02791 0.06264,-0.01926 0.11452,-0.204251 0.161197,-0.361331 0.19318,-0.517943 -0.01468,5.29e-4 -0.0048,0.02815 0.06317,-0.01807 0.118026,-0.201054 0.168079,-0.355881 0.202991,-0.510522 -0.01513,1.93e-4 -0.0054,0.02886 0.06324,-0.01564 0.124079,-0.197201 0.179517,-0.349922 0.21767,-0.504539 -0.01728,-0.0019 -0.007,0.03131 0.06638,-0.01373 0.231924,-0.3464 0.390457,-0.647779 0.543436,-0.959913 -0.0055,-0.01074 0.01714,-0.01918 0.07109,-0.08023 0.244816,-0.392274 0.435671,-0.723495 0.692981,-1.087152 0.141851,-0.158541 0.217258,-0.284647 0.358053,-0.467744 0.23168,-0.291528 0.397957,-0.526081 0.608812,-0.792458 0.109659,-0.07282 0.152527,-0.130384 0.216146,-0.240811 0.0966,-0.09193 0.131622,-0.157493 0.217516,-0.280749 0.276776,-0.311616 0.48404,-0.575498 0.764191,-0.873525 0.356931,-0.350295 0.640972,-0.666448 0.994124,-1.013788 0.127117,-0.111225 0.185116,-0.191275 0.226513,-0.272714 -0.01659,-0.0013 -0.0053,0.02995 0.07151,-0.0011 0.321831,-0.252926 0.566851,-0.474874 0.859808,-0.718344 0.108294,-0.05993 0.156726,-0.109884 0.26443,-0.217614 0.372846,-0.285594 0.674497,-0.524968 0.985179,-0.778119 0.009,-0.01378 0.04094,-0.02201 0.103513,-0.05859 0.164978,-0.132842 0.267377,-0.229122 0.351287,-0.339548 -0.01849,-0.01416 0.0062,0.02529 0.07103,0.01048 0.134898,-0.06611 0.204994,-0.117401 0.348096,-0.204298 0.296873,-0.182904 0.520737,-0.330197 0.826127,-0.522303 3.136826,-1.732881 6.294054,-3.037356 9.896459,-2.812103 0.847725,0.05301 1.185529,0.325731 1.286402,1.241671 0.135766,1.232588 0.560358,2.433363 0.85884,3.670255 -0.0021,0.02246 0.0081,0.06643 0.04308,0.151104 0.489053,0.876424 0.943118,1.668171 1.404379,2.444183 0.0072,-0.01572 -0.02313,7.94e-4 -0.0035,0.07349 0.114834,0.186171 0.210023,0.299762 0.328604,0.499419 1.557584,1.990416 3.305347,3.652944 5.566392,4.657193 1.46091,0.648878 2.362993,0.134343 2.761458,-1.391848 0.290148,-1.111335 -0.10642,-1.839381 -1.079018,-2.402202 -2.429148,-1.405689 -4.244906,-3.373647 -5.321956,-6.11736 -0.740386,-2.248829 -0.283469,-4.344083 0.284303,-6.471497 0.108939,-0.191137 0.142901,-0.348758 0.252084,-0.538419 0.112863,-0.187457 0.15049,-0.342865 0.267102,-0.530725 0.321969,-0.401172 0.56496,-0.769898 0.820896,-1.155258 0.01294,-0.01662 0.04149,-0.04764 0.09562,-0.100915 0.164386,-0.223194 0.274635,-0.39312 0.457182,-0.598802 0.353734,-0.35559 0.635169,-0.675418 0.984525,-1.025615 0.122838,-0.110919 0.177752,-0.191476 0.214804,-0.273127 -0.01786,-0.0011 -0.01392,0.03449 0.05645,0.0099 0.130339,-0.100118 0.190315,-0.175678 0.232527,-0.25264 -0.01775,-0.0013 -0.0048,0.03179 0.06586,0.0075 0.221401,-0.151191 0.372158,-0.27812 0.519912,-0.418825 -0.003,-0.01378 0.02357,-0.0043 0.08935,-0.04046 0.173204,-0.134749 0.280628,-0.233373 0.372152,-0.336671 -0.0159,-0.0047 -0.01077,0.02808 0.05794,0.0089 0.13834,-0.07899 0.207957,-0.138795 0.28766,-0.198959 0.01008,-2.65e-4 0.02985,0.0037 0.102359,-0.03244 0.338577,-0.219639 0.604639,-0.403188 0.870707,-0.586738 0,0 -0.02458,-0.0081 0.04433,-0.0087 0.142338,-0.05337 0.215776,-0.106063 0.289203,-0.158758 0,-5e-6 -0.02915,0.0155 0.05603,-0.009 0.209807,-0.102852 0.334436,-0.181232 0.459057,-0.259607 0,-2e-6 -0.0583,0.009 0.05567,-0.01849 0.482359,-0.217617 0.850755,-0.407747 1.219145,-0.597876 0,0 -0.02837,-0.0086 0.06305,-0.0054 0.374542,-0.107691 0.657657,-0.218575 0.940777,-0.329462 m -3.468053,56.097206 c 0,0 -0.0074,-0.0369 -0.141938,0.0206 -0.04836,0.0829 -0.09672,0.16576 -0.117896,0.25233 0,0 -0.0079,-0.0263 -0.130426,0.0237 -0.08112,0.10324 -0.162248,0.20647 -0.312182,0.36221 0,0 -0.02724,0.0822 -0.08103,0.11953 0,0 -0.08007,0.10257 -0.152548,0.13998 0,0 -0.03753,0.0724 -0.111008,0.11738 -0.04586,0.0374 -0.07813,0.0842 -0.126204,0.17016 0,0 -0.03395,0.0246 -0.148143,0.11385 -0.118507,0.15143 -0.237024,0.30286 -0.304001,0.5547 0,0 -0.0409,-0.10518 -0.162766,-0.0408 -0.04545,0.0784 -0.09091,0.15671 -0.07691,0.2588 0,0 -0.04995,-0.04 -0.193543,0.0373 -0.09244,0.18163 -0.184872,0.36327 -0.361712,0.70263 -1.56418,1.62371 -3.128354,3.24742 -4.832157,4.95527 -0.148666,0.22453 -0.297333,0.44907 -0.418724,0.6814 0,0 -0.0057,-0.0278 -0.16505,0.0644 -2.122892,2.875487 -1.666655,6.184587 -1.561526,9.428127 0.007,0.21436 0.27005,0.4204 0.422035,0.60702 0,0 -0.02355,0.007 0.02312,0.13386 0.07492,0.0446 0.149836,0.0892 0.310809,0.29291 0.336785,0.10401 0.673579,0.20803 1.254382,0.35332 0.656402,0.0122 1.321421,0.0966 1.967182,0.0196 0.95922,-0.11437 1.904817,-0.34299 2.8252,-0.53038 0,0 2.64e-4,0.0319 0.140607,-0.0211 0.04823,-0.0842 0.09646,-0.16847 0.120108,-0.25171 0,0 0.0061,0.0238 0.178186,-0.11669 0.01127,-0.66929 0.02257,-1.3386 0.124963,-2.19682 0.266083,-1.1659 0.532169,-2.33179 0.768426,-3.49852 0,0 0.009,0.0285 0.156388,-0.0721 0.39743,-0.58899 0.794864,-1.17796 1.163097,-1.77432 0,0 0.003,0.03 0.138833,-0.0264 0.05092,-0.0816 0.101835,-0.16325 0.125896,-0.24664 0,0 0.0069,0.026 0.130789,-0.0256 0.08364,-0.10398 0.167272,-0.20796 0.3213,-0.36055 0,0 0.03105,-0.0797 0.05627,-0.0974 0,0 0.0085,-0.0296 0.170701,-0.10519 1.667865,-1.840417 3.32713,-3.688727 5.007052,-5.518067 0.90378,-0.98418 1.843021,-1.9358 2.84254,-2.94065 0,0 0.03436,-0.0782 0.03675,-0.10496 0,0 0.02524,-0.009 0.14182,-0.10772 0.104685,-0.17284 0.209362,-0.34568 0.289073,-0.52456 0,0 0.0085,0.0242 0.147891,-0.0496 0.07662,-0.13707 0.153236,-0.27415 0.188693,-0.43631 0,0 0.0067,0.0477 0.129813,-0.0307 0.03537,-0.09 0.07075,-0.17993 0.07399,-0.27305 0,0 0.0099,0.0308 0.161441,-0.0686 0.126833,-0.33403 0.253659,-0.66805 0.353491,-1.00492 0,0 0.0039,0.0269 0.158306,-0.0447 0.04501,-0.16133 0.09002,-0.32268 0.105971,-0.48554 0,0 0.005,0.0287 0.177096,-0.0591 0.830172,-1.56913 1.098553,-3.2388 0.873551,-5.19018 -0.01545,-0.19667 -0.0309,-0.39333 -0.01085,-0.82151 -0.08415,-0.7276 -0.168312,-1.4552 -0.250881,-2.29403 0,0 -0.0155,-0.110159 0.08393,-0.255095 -0.373814,-1.291918 -0.747638,-2.583831 -1.130617,-3.847796 0,0 0.0294,-0.0011 0.01074,-0.179583 -0.149053,-0.315905 -0.298117,-0.631809 -0.438449,-0.890733 0,0 0.0061,-0.05733 -0.04336,-0.201456 -0.07279,-0.129935 -0.145582,-0.259877 -0.268396,-0.412983 0,0 0.05422,0.0099 -0.01328,-0.147667 -0.186317,-0.280813 -0.372645,-0.561618 -0.567336,-0.81521 0,0 0.02833,-0.003 -0.01008,-0.142806 -0.06225,-0.06934 -0.124516,-0.138695 -0.164719,-0.187722 0,0 -0.0077,-0.02899 -0.03707,-0.121497 0,0 -0.07927,-0.05605 -0.103545,-0.202306 -0.137766,-0.136384 -0.275526,-0.272769 -0.477702,-0.552751 -0.08107,-0.06204 -0.162134,-0.124087 -0.246415,-0.137078 0,0 0.0464,-0.01627 -0.004,-0.154385 -0.07641,-0.05775 -0.152808,-0.115506 -0.236765,-0.127172 0,0 0.02861,-0.03691 -0.05086,-0.187764 -0.352661,-0.292626 -0.705319,-0.58525 -1.093256,-0.993317 -0.05528,-0.06892 -0.126873,-0.09905 -0.297196,-0.22556 -0.134794,-0.08083 -0.269589,-0.161674 -0.423132,-0.199326 0,0 0.04587,-0.01058 -0.03196,-0.133996 -0.09086,-0.03294 -0.181724,-0.06589 -0.273055,-0.0723 0,0 0.02524,-0.0083 -0.06751,-0.160423 -0.420412,-0.216 -0.840825,-0.431998 -1.259501,-0.625768 0,0 0.0209,-0.0078 -0.07335,-0.140375 -0.194876,-0.09035 -0.38976,-0.1807 -0.62375,-0.27894 0,0 -0.0388,-0.0093 -0.166899,-0.09529 -0.153763,-0.01693 -0.307515,-0.03386 -0.462627,-0.02103 0,0 0.02923,-0.0057 -0.04091,-0.161441 -0.161552,-0.04384 -0.323099,-0.08769 -0.486669,-0.103756 0,0 0.02731,-0.0055 -0.06314,-0.171122 -0.243994,-0.0409 -0.487995,-0.08181 -0.73387,-0.09284 0,0 0.02956,-0.0048 -0.05722,-0.173156 -0.244835,-0.04028 -0.489667,-0.08056 -0.736065,-0.09105 0,0 0.02939,-0.0051 -0.06863,-0.18035 -1.283386,-0.254627 -2.556248,-0.61595 -3.85214,-0.74385 -3.86954,-0.381929 -7.571767,0.189484 -10.930986,2.233779 0,0 -0.0026,-0.03431 -0.163353,-0.0019 -0.127746,0.09101 -0.255493,0.182012 -0.36013,0.283565 0,0 -0.0051,-0.0249 -0.168238,0.01347 -0.214257,0.169706 -0.428503,0.339423 -0.619562,0.521407 0,0 -0.0082,-0.0249 -0.168013,0.02569 -0.283387,0.260085 -0.566777,0.52017 -0.944887,0.807484 0,0 -0.05216,0.08363 -0.03959,0.102148 0,0 -0.02138,0.0066 -0.138124,0.07088 -0.04894,0.07275 -0.09788,0.14551 -0.08095,0.259067 0,0 -0.0539,-0.05566 -0.176927,0.0096 -0.04932,0.07712 -0.09864,0.154236 -0.09269,0.231042 0,0 -0.05131,-0.02056 -0.184613,0.06891 -0.118631,0.176572 -0.237268,0.353136 -0.469085,0.564443 -0.06483,0.05652 -0.09298,0.127569 -0.230436,0.300281 -0.143645,0.24112 -0.287298,0.48223 -0.399646,0.725982 0,0 -0.0079,-0.0304 -0.162012,0.06007 -0.217284,0.422085 -0.434575,0.844174 -0.624123,1.266508 0,0 -0.0077,-0.02663 -0.147965,0.06176 -0.04988,0.15616 -0.09976,0.31232 -0.118275,0.467617 0,0 -0.0092,-0.03001 -0.162044,0.08358 -0.257833,0.629848 -0.515675,1.259702 -0.78306,1.946394 0,0 0.03334,0.04704 -0.08711,0.183372 -0.340039,1.473149 -0.680087,2.946296 -1.063373,4.654705 0.256357,1.25857 0.512704,2.51714 0.776568,3.74874 0,0 -0.028,-1.4e-4 0.01463,0.14436 0.0799,0.0571 0.159801,0.1141 0.242663,0.13643 0,0 -0.03352,0.01 0.08526,0.18548 1.655043,0.087 3.310086,0.17402 5.156613,0.28129 0.592778,-0.29247 1.185548,-0.58494 1.765501,-0.90552 0,0 0.02951,0.009 0.176493,-0.0877 0.1871,-0.35933 0.374192,-0.71865 0.534874,-1.08101 0,0 0.0041,0.0263 0.179083,-0.07 0.478711,-1.73964 0.957419,-3.47929 1.403178,-5.223088 0,0 0.0016,0.03319 0.138549,-0.01987 0.05202,-0.07972 0.104024,-0.159446 0.12986,-0.239496 0,0 0.0072,0.02516 0.143566,-0.04547 0.0822,-0.128754 0.164401,-0.257508 0.215328,-0.421621 0,0 0.0088,0.04638 0.130369,-0.02379 0.04536,-0.08067 0.09073,-0.161343 0.08784,-0.255315 0,0 0.01484,0.04779 0.14969,-0.01132 0.05382,-0.08003 0.107649,-0.160052 0.113165,-0.251026 0,0 0.01714,0.04648 0.150837,-0.0078 0.05706,-0.0751 0.114117,-0.150201 0.12845,-0.232341 0,0 0.02674,0.03405 0.14248,-0.01056 0.07559,-0.04036 0.130961,-0.0996 0.190508,-0.197485 0,0 0.03139,5.29e-4 0.168474,-0.08438 0.266046,-0.183653 0.53209,-0.367305 0.766418,-0.560067 0,0 0.0031,0.03285 0.202885,-0.008 2.618624,-1.185717 5.275326,-1.046949 7.95206,-0.261861 0,0 -0.03168,0.01 0.06434,0.142795 0.152819,0.05771 0.305626,0.115417 0.46173,0.133446 0,0 -0.03837,0.01058 0.04509,0.154577 0.229216,0.152858 0.458425,0.305716 0.706231,0.412814 0,0 -0.04787,0.01217 0.01151,0.145058 0.07889,0.05344 0.157798,0.106889 0.246658,0.112654 0,0 -0.04421,0.02045 0.0019,0.146269 0.06495,0.05859 0.129887,0.117184 0.205343,0.192228 0,0 -0.01164,0.01569 0.06743,0.145251 0.116618,0.16623 0.233238,0.332457 0.374814,0.700175 1.129044,3.210143 1.381853,6.378263 -0.451286,9.474303 0,0 -0.02652,0.009 -0.128611,0.11766 -0.100132,0.16884 -0.200253,0.33768 -0.274506,0.51489 0,0 -0.01259,-0.0241 -0.144187,0.0427 -0.08312,0.12108 -0.166251,0.24217 -0.202126,0.41154 0,0 -0.05929,-0.0324 -0.17893,0.0631 -0.113228,0.16803 -0.226456,0.33606 -0.30054,0.51491 0,0 -0.0083,-0.0398 -0.14365,0.0174 -0.04858,0.0834 -0.09716,0.16677 -0.108733,0.25711 m -9.408396,25.949697 c -0.04394,0.0757 -0.08789,0.15133 -0.259318,0.27292 -0.03994,0.0782 -0.07986,0.1565 -0.257455,0.29174 -0.07517,0.12785 -0.150336,0.25571 -0.324818,0.4757 -0.02254,0.0868 -0.0451,0.17357 -0.209072,0.33488 -0.04283,0.15081 -0.08565,0.30161 -0.279085,0.58138 -0.662942,2.10801 -0.754959,4.14913 0.72834,6.14333 0.07288,0.0497 0.145759,0.0994 0.256725,0.27914 0.07451,0.046 0.149032,0.0919 0.265835,0.26683 0.07681,0.0423 0.153633,0.0847 0.302284,0.28239 0.240353,0.12637 0.480705,0.25276 0.796552,0.5347 0.168174,0.0228 0.336341,0.0452 0.664083,0.18994 1.901031,0.65786 3.712144,0.52671 5.539568,-0.64931 0.04389,-0.0767 0.08779,-0.15346 0.292658,-0.2581 0.169894,-0.12515 0.33978,-0.2503 0.621959,-0.4612 0.07658,-0.11186 0.153146,-0.2237 0.31596,-0.3978 0,0 0.0281,-0.10258 0.145195,-0.17359 0.02908,-0.0849 0.05815,-0.16976 0.224727,-0.33245 0.04519,-0.14878 0.09037,-0.29755 0.296743,-0.57782 0.503201,-1.88738 0.678302,-3.74928 -0.442105,-5.64207 -0.01831,-0.0899 -0.06401,-0.16266 -0.21312,-0.34827 -0.104812,-0.10137 -0.209618,-0.20272 -0.349903,-0.43404 -0.07195,-0.049 -0.143904,-0.098 -0.260588,-0.27364 -0.07676,-0.0417 -0.153512,-0.0835 -0.300911,-0.27839 -0.28657,-0.16666 -0.573148,-0.33331 -1.035643,-0.59975 -1.682294,-0.59338 -3.370143,-0.82926 -5.253032,-0.0524 -0.282781,0.18161 -0.565565,0.36323 -0.981109,0.57336 -0.05216,0.07 -0.10432,0.14001 -0.28447,0.25257 z"
         id="path418"
         style="fill:#8ab8f5;fill-opacity:1;stroke-width:0.264583" />
    </g>
  </g>
  <path
     style="fill:#ffe680;fill-opacity:1;stroke:#308a00;stroke-width:0"
     d="m 77.385166,206.34088 c -5.815589,-0.89007 -7.327392,-1.8524 -11.811497,-7.51853 -0.284486,-0.35947 -1.257634,-0.65359 -2.162559,-0.65359 -2.589419,0 -8.200972,-1.53845 -11.813971,-3.2389 -8.651417,-4.07176 -15.853214,-16.48762 -14.446009,-24.90483 1.370097,-8.19528 5.044789,-13.23718 12.260344,-16.82195 1.294112,-0.64293 2.76469,-1.53095 3.267956,-1.97339 1.206418,-1.0606 1.165733,-3.39062 -0.07887,-4.51697 -0.859859,-0.77816 -1.300567,-0.81744 -3.267951,-0.29124 -6.879587,1.84 -12.243374,6.3079 -15.365499,12.79906 -1.238314,2.57456 -2.18431,3.91518 -2.761943,3.91408 -2.38519,-0.005 -10.432323,-1.75155 -12.183757,-2.64506 -1.09251,-0.55736 -2.302913,-1.01338 -2.689785,-1.01338 -1.406121,0 -7.5463089,-5.6833 -9.9656144,-9.22408 -3.5415792,-5.18328 -6.09158601,-13.72289 -6.09914288,-20.42516 -0.007753,-6.87627 2.58546348,-13.74919 5.18769268,-13.74919 0.4664332,0 2.0581294,0.90922 3.5371026,2.0205 3.357965,2.52313 8.95618,3.96861 12.968996,3.34864 2.292299,-0.35415 2.726177,-0.62783 3.522013,-2.22164 1.337036,-2.67766 0.504914,-3.21802 -6.102685,-3.96293 -4.714781,-0.53152 -5.855414,-0.85694 -8.138309,-2.32187 C 6.8228159,110.10487 4.0752212,106.07502 1.444805,98.571537 0.38262905,95.541589 0.17204217,94.01275 0.23753078,89.806867 0.33134,83.782141 1.1686552,80.222312 3.6203972,75.424684 7.1137396,68.588829 12.032139,63.522202 17.964073,60.648734 L 21.134331,59.113042 20.8296,54.000821 C 20.458467,47.774615 21.347981,43.60903 24.427196,37.153337 28.555363,28.498478 38.3384,20.816815 47.191173,19.279013 c 4.960588,-0.861697 5.686054,-0.514681 6.427494,3.074491 0.341513,1.653203 1.196374,4.14469 1.899689,5.536639 2.668204,5.280694 8.402836,9.985179 11.776448,9.660974 1.520786,-0.14615 1.783456,-0.404884 2.224593,-2.191268 0.466299,-1.888279 0.395428,-2.110478 -1.045744,-3.278727 C 63.472739,28.02726 62.425918,26.914907 61.141842,24.290355 59.004668,19.922121 59.583298,15.145501 62.91255,9.6731466 66.978482,2.9898915 83.431811,-1.8577154 93.212496,0.74594176 99.021888,2.2924246 104.6969,7.1031037 105.87558,11.480364 c 0.37742,1.401624 0.50573,28.797007 0.4083,87.176662 -0.13587,81.411874 -0.18459,85.258424 -1.11474,88.008534 -2.08534,6.16561 -6.582536,13.35008 -9.675814,15.45754 -2.417728,1.64721 -9.279012,4.30895 -11.908219,4.61964 -1.109326,0.13108 -3.899302,-0.0498 -6.199941,-0.40186 z m -12.327231,-70.8084 c 5.893631,-4.40024 4.467622,-13.50978 -2.384928,-15.23527 -6.015281,-1.51467 -10.647169,2.04657 -10.647169,8.18609 0,5.3012 3.932285,8.86837 9.14286,8.29395 1.433819,-0.15807 3.183979,-0.71822 3.889237,-1.24477 z m -0.803093,-23.61547 c 1.018898,-0.38739 1.259653,-0.95592 1.539793,-3.6362 0.18264,-1.74735 0.668581,-3.9824 1.079879,-4.96678 0.411297,-0.98437 4.15481,-5.439591 8.318915,-9.900492 C 84.574586,83.363753 85.614946,81.463216 85.54163,74.509363 85.46982,67.698874 83.678534,61.885082 80.481198,58.085263 75.643649,52.336155 64.103575,48.914268 55.548651,50.692201 c -4.169198,0.866468 -9.853107,3.827159 -12.080496,6.292607 -2.501019,2.768335 -4.355619,6.56178 -5.555533,11.363446 -0.83367,3.336076 -0.899192,4.402323 -0.407829,6.636504 0.321982,1.464014 0.808588,2.955957 1.081347,3.315433 0.63292,0.834139 7.663032,0.88083 9.458372,0.06282 1.409071,-0.642014 3.118279,-4.064127 3.752821,-7.513754 0.488138,-2.653726 3.418938,-5.688687 6.253332,-6.475579 4.876914,-1.353939 10.056405,-0.410044 12.11571,2.20794 2.584569,3.285746 2.598981,11.443821 0.02619,14.82404 -1.946376,2.557219 -7.273446,8.656582 -10.873587,12.449998 -4.146507,4.369109 -4.908682,6.292694 -4.899813,12.366174 0.007,4.78553 0.456644,5.94156 2.481217,6.37903 1.456971,0.31481 5.786681,-0.0878 7.354462,-0.68385 z"
     id="path1" />
  <path
     style="fill:#ffe680;fill-opacity:1;stroke:#308a00;stroke-width:0"
     d="m 135.94691,207.07346 c -2.92583,-0.64152 -7.86527,-2.9163 -10.60559,-4.88425 -3.65514,-2.62492 -7.22378,-8.15332 -9.0081,-13.95503 l -1.5277,-4.96729 -0.1482,-85.489691 c -0.13024,-75.132214 -0.0532,-85.684277 0.63612,-87.095803 1.04641,-2.1428473 2.94644,-4.3287983 5.49016,-6.3163226 5.70557,-4.45801968 14.67284,-5.34920343 23.7928,-2.3645701 4.69863,1.5376919 8.28852,3.4167233 10.77499,5.6398736 1.88839,1.6884145 4.48106,7.4751121 4.76827,10.6425371 0.62885,6.935041 -1.97413,12.295618 -7.8007,16.064811 -3.21409,2.07918 -3.56167,2.472245 -3.56167,4.027715 0,2.140577 1.54903,3.7041 3.24689,3.277272 2.75815,-0.69338 8.06448,-4.477049 10.31977,-7.358491 1.95058,-2.492145 2.53986,-3.829344 3.66011,-8.305562 l 1.33521,-5.335185 3.30633,-0.156665 c 9.49487,-0.449897 21.5758,7.13155 25.90658,16.257812 3.25457,6.858346 5.54886,17.44472 3.98951,18.408451 -0.28758,0.177737 -0.52287,1.228082 -0.52287,2.334104 0,1.84217 0.20845,2.135497 2.48364,3.494897 1.36601,0.816179 3.15835,1.822485 3.98299,2.236243 2.38525,1.196789 7.76209,6.806213 9.90424,10.332667 2.54208,4.184822 4.45157,10.602153 4.59659,15.448023 0.0857,2.862852 -0.27537,5.23472 -1.46295,9.610619 -2.12525,7.830985 -4.7956,11.618455 -10.09921,14.324155 -2.47184,1.26103 -3.88572,1.56623 -9.42453,2.03433 -2.45501,0.20748 -4.74911,0.55367 -5.09801,0.76929 -0.89038,0.55029 -0.78979,3.01299 0.17959,4.39698 0.72122,1.02969 1.2723,1.16206 4.83658,1.16183 2.78449,-1.8e-4 4.88761,-0.32903 6.83295,-1.06841 3.82142,-1.45244 6.53648,-2.87539 7.34484,-3.84942 1.08612,-1.30868 2.30033,-0.21001 4.39376,3.97568 1.62064,3.24038 1.96032,4.53511 2.24455,8.55531 0.69214,9.79012 -2.0428,17.39393 -8.85069,24.6071 -4.61004,4.88448 -7.03191,6.42791 -13.51009,8.6098 -7.39103,2.48936 -8.47438,2.14651 -12.30678,-3.89472 -3.46045,-5.4549 -5.56599,-7.39576 -11.46177,-10.56531 -5.93396,-3.19007 -7.60667,-3.47964 -8.87945,-1.53713 -1.53051,2.33586 -0.66421,3.67529 3.77808,5.84144 10.77741,5.2553 15.40596,14.59751 13.03341,26.30653 -1.19375,5.89141 -2.68299,8.59036 -6.97311,12.63745 -4.25382,4.01284 -9.22957,6.36318 -15.55191,7.34609 l -3.9918,0.62059 -2.19029,2.90673 c -2.93625,3.89668 -5.91978,5.33027 -11.57561,5.56211 -2.30749,0.0946 -5.13661,-0.0344 -6.28693,-0.28659 z m 18.86891,-89.36954 c 1.40555,-0.8571 9.5911,-10.95276 29.92818,-36.911973 3.29726,-4.208782 5.4406,-7.438205 5.63917,-8.496683 1.08449,-5.780797 -3.46233,-9.522667 -8.84058,-7.275497 -2.08021,0.869172 -1.99871,0.774229 -17.26922,20.115861 -6.85169,8.678343 -12.6508,15.778812 -12.88693,15.778812 -0.23613,0 -1.19887,-0.88235 -2.13942,-1.960776 -6.18219,-7.088428 -10.00064,-10.744668 -11.90749,-11.401634 -5.97557,-2.058747 -10.69857,4.179578 -7.33798,9.692293 1.11201,1.824136 12.19401,14.723897 15.87772,18.482097 3.08501,3.1474 5.97083,3.78598 8.93655,1.9775 z"
     id="path2" />
</svg>
